<svg width="90" height="28" viewBox="0 0 90 28" fill="none" xmlns="http://www.w3.org/2000/svg">
<rect x="0.5" y="0.5" width="89" height="27" rx="13.5" stroke="white"/>
<path d="M34.1475 18C33.9541 18 33.8208 17.9433 33.7475 17.83C33.6741 17.7167 33.6741 17.5633 33.7475 17.37L36.0075 11.44C36.1075 11.1467 36.3175 11 36.6375 11H36.7175C37.0375 11 37.2475 11.1467 37.3475 11.44L39.6175 17.37C39.6908 17.5633 39.6875 17.7167 39.6075 17.83C39.5341 17.9433 39.4008 18 39.2075 18H39.0175C38.7041 18 38.4975 17.85 38.3975 17.55L38.0075 16.46H35.3175L34.9275 17.55C34.8275 17.85 34.6208 18 34.3075 18H34.1475ZM35.6975 15.39H37.6375L36.6775 12.66L35.6975 15.39ZM41.14 19.97C40.76 19.97 40.57 19.7733 40.57 19.38V13.78C40.57 13.3867 40.7366 13.19 41.07 13.19C41.39 13.19 41.56 13.26 41.58 13.4L41.61 13.72C41.95 13.2867 42.3966 13.07 42.95 13.07C43.3966 13.07 43.7933 13.17 44.14 13.37C44.4933 13.57 44.77 13.86 44.97 14.24C45.17 14.6133 45.27 15.0633 45.27 15.59C45.27 16.1167 45.17 16.57 44.97 16.95C44.77 17.3233 44.4933 17.61 44.14 17.81C43.7933 18.01 43.3966 18.11 42.95 18.11C42.7033 18.11 42.4733 18.0633 42.26 17.97C42.0466 17.87 41.86 17.7333 41.7 17.56V19.38C41.7 19.5667 41.65 19.71 41.55 19.81C41.4566 19.9167 41.32 19.97 41.14 19.97ZM42.91 17.09C43.2633 17.09 43.5566 16.96 43.79 16.7C44.0233 16.44 44.14 16.07 44.14 15.59C44.14 15.11 44.0233 14.74 43.79 14.48C43.5566 14.22 43.2633 14.09 42.91 14.09C42.5566 14.09 42.2633 14.22 42.03 14.48C41.7966 14.74 41.68 15.11 41.68 15.59C41.68 16.07 41.7966 16.44 42.03 16.7C42.2633 16.96 42.5566 17.09 42.91 17.09ZM46.8138 19.97C46.4338 19.97 46.2438 19.7733 46.2438 19.38V13.78C46.2438 13.3867 46.4105 13.19 46.7438 13.19C47.0638 13.19 47.2338 13.26 47.2538 13.4L47.2838 13.72C47.6238 13.2867 48.0705 13.07 48.6238 13.07C49.0705 13.07 49.4671 13.17 49.8138 13.37C50.1671 13.57 50.4438 13.86 50.6438 14.24C50.8438 14.6133 50.9438 15.0633 50.9438 15.59C50.9438 16.1167 50.8438 16.57 50.6438 16.95C50.4438 17.3233 50.1671 17.61 49.8138 17.81C49.4671 18.01 49.0705 18.11 48.6238 18.11C48.3771 18.11 48.1471 18.0633 47.9338 17.97C47.7205 17.87 47.5338 17.7333 47.3738 17.56V19.38C47.3738 19.5667 47.3238 19.71 47.2238 19.81C47.1305 19.9167 46.9938 19.97 46.8138 19.97ZM48.5838 17.09C48.9371 17.09 49.2305 16.96 49.4638 16.7C49.6971 16.44 49.8138 16.07 49.8138 15.59C49.8138 15.11 49.6971 14.74 49.4638 14.48C49.2305 14.22 48.9371 14.09 48.5838 14.09C48.2305 14.09 47.9371 14.22 47.7038 14.48C47.4705 14.74 47.3538 15.11 47.3538 15.59C47.3538 16.07 47.4705 16.44 47.7038 16.7C47.9371 16.96 48.2305 17.09 48.5838 17.09ZM57.3504 18.14C56.857 18.14 56.397 18.0567 55.9704 17.89C55.5437 17.7167 55.177 17.43 54.8704 17.03C54.757 16.87 54.717 16.7233 54.7504 16.59C54.7904 16.45 54.8904 16.3367 55.0504 16.25C55.2037 16.1567 55.3437 16.13 55.4704 16.17C55.597 16.2033 55.7237 16.29 55.8504 16.43C56.0304 16.6233 56.2437 16.7733 56.4904 16.88C56.7437 16.9867 57.0437 17.04 57.3904 17.04C57.857 17.04 58.1837 16.9567 58.3704 16.79C58.5637 16.6167 58.6604 16.3833 58.6604 16.09C58.6604 15.9033 58.617 15.7433 58.5304 15.61C58.4504 15.4767 58.277 15.3533 58.0104 15.24C57.7504 15.12 57.347 15 56.8004 14.88C56.1537 14.7267 55.6737 14.4833 55.3604 14.15C55.0537 13.8167 54.9004 13.3933 54.9004 12.88C54.9004 12.4733 54.997 12.1167 55.1904 11.81C55.3904 11.4967 55.667 11.2533 56.0204 11.08C56.3804 10.9067 56.8004 10.82 57.2804 10.82C57.7804 10.82 58.217 10.9067 58.5904 11.08C58.9637 11.2533 59.277 11.4767 59.5304 11.75C59.657 11.89 59.707 12.03 59.6804 12.17C59.6537 12.31 59.567 12.4367 59.4204 12.55C59.2737 12.67 59.1337 12.7167 59.0004 12.69C58.867 12.6633 58.7337 12.5867 58.6004 12.46C58.4337 12.3067 58.2437 12.18 58.0304 12.08C57.817 11.98 57.5637 11.93 57.2704 11.93C56.9237 11.93 56.6404 12.0067 56.4204 12.16C56.207 12.3067 56.1004 12.53 56.1004 12.83C56.1004 12.9633 56.1304 13.0933 56.1904 13.22C56.257 13.34 56.397 13.4567 56.6104 13.57C56.8304 13.6833 57.167 13.7933 57.6204 13.9C58.4204 14.08 58.997 14.35 59.3504 14.71C59.7037 15.07 59.8804 15.5233 59.8804 16.07C59.8804 16.7367 59.647 17.25 59.1804 17.61C58.7204 17.9633 58.1104 18.14 57.3504 18.14ZM62.9306 18.11C62.4573 18.11 62.0939 18.0233 61.8406 17.85C61.5939 17.6767 61.4706 17.33 61.4706 16.81V14.16H61.1406C60.7473 14.16 60.5506 13.9967 60.5506 13.67C60.5506 13.5167 60.5906 13.4 60.6706 13.32C60.7573 13.2333 60.9106 13.19 61.1306 13.19H61.4706V12.09C61.4706 11.6967 61.6606 11.5 62.0406 11.5C62.4073 11.5 62.5906 11.6967 62.5906 12.09V13.19H63.3306C63.7239 13.19 63.9206 13.35 63.9206 13.67C63.9206 13.9967 63.7273 14.16 63.3406 14.16H62.5906V16.52C62.5906 16.7467 62.6439 16.9 62.7506 16.98C62.8639 17.06 63.0239 17.1 63.2306 17.1C63.4439 17.1 63.6106 17.1267 63.7306 17.18C63.8573 17.2267 63.9206 17.3533 63.9206 17.56C63.9206 17.7267 63.8706 17.85 63.7706 17.93C63.6773 18.0033 63.5539 18.05 63.4006 18.07C63.2539 18.0967 63.0973 18.11 62.9306 18.11ZM66.8782 18.11C66.4382 18.11 66.0416 18.0067 65.6882 17.8C65.3416 17.5867 65.0649 17.2933 64.8582 16.92C64.6582 16.54 64.5582 16.0967 64.5582 15.59C64.5582 15.0833 64.6582 14.6433 64.8582 14.27C65.0649 13.89 65.3416 13.5967 65.6882 13.39C66.0416 13.1767 66.4382 13.07 66.8782 13.07C67.3316 13.07 67.7316 13.1767 68.0782 13.39C68.4316 13.5967 68.7082 13.89 68.9082 14.27C69.1082 14.6433 69.2082 15.0833 69.2082 15.59C69.2082 16.0967 69.1082 16.54 68.9082 16.92C68.7082 17.2933 68.4316 17.5867 68.0782 17.8C67.7316 18.0067 67.3316 18.11 66.8782 18.11ZM66.8782 17.09C67.2316 17.09 67.5182 16.96 67.7382 16.7C67.9649 16.44 68.0782 16.07 68.0782 15.59C68.0782 15.11 67.9649 14.74 67.7382 14.48C67.5182 14.22 67.2316 14.09 66.8782 14.09C66.5316 14.09 66.2482 14.22 66.0282 14.48C65.8082 14.74 65.6982 15.11 65.6982 15.59C65.6982 16.07 65.8082 16.44 66.0282 16.7C66.2482 16.96 66.5316 17.09 66.8782 17.09ZM70.7493 18C70.3693 18 70.1793 17.8033 70.1793 17.41V13.78C70.1793 13.3867 70.376 13.19 70.7693 13.19C70.9027 13.19 71.0193 13.2233 71.1193 13.29C71.2193 13.35 71.2693 13.4667 71.2693 13.64V13.87C71.3893 13.63 71.576 13.4367 71.8293 13.29C72.0893 13.1433 72.3627 13.07 72.6493 13.07C72.856 13.07 73.0127 13.1267 73.1193 13.24C73.2327 13.3467 73.2893 13.4933 73.2893 13.68C73.2893 13.8533 73.246 13.98 73.1593 14.06C73.0727 14.14 72.9727 14.1733 72.8593 14.16C72.806 14.1533 72.7493 14.15 72.6893 14.15C72.6293 14.1433 72.5627 14.14 72.4893 14.14C72.1627 14.14 71.8827 14.2467 71.6493 14.46C71.4227 14.6733 71.3093 14.9733 71.3093 15.36V17.41C71.3093 17.8033 71.1227 18 70.7493 18ZM76.0977 18.11C75.3977 18.11 74.831 17.9 74.3977 17.48C73.9644 17.0533 73.7477 16.4233 73.7477 15.59C73.7477 15.07 73.8444 14.6233 74.0377 14.25C74.231 13.87 74.501 13.58 74.8477 13.38C75.1944 13.1733 75.591 13.07 76.0377 13.07C76.4844 13.07 76.8644 13.1733 77.1777 13.38C77.491 13.5867 77.731 13.8533 77.8977 14.18C78.0644 14.5067 78.1477 14.8467 78.1477 15.2C78.1477 15.4467 78.0977 15.61 77.9977 15.69C77.8977 15.7633 77.751 15.8 77.5577 15.8H74.8577C74.8844 16.28 75.011 16.6233 75.2377 16.83C75.4644 17.03 75.7577 17.13 76.1177 17.13C76.5244 17.13 76.841 16.99 77.0677 16.71C77.201 16.57 77.3244 16.48 77.4377 16.44C77.5577 16.3933 77.6844 16.4167 77.8177 16.51C77.951 16.6033 78.0277 16.7233 78.0477 16.87C78.0677 17.0167 78.0077 17.17 77.8677 17.33C77.641 17.6033 77.381 17.8033 77.0877 17.93C76.7944 18.05 76.4644 18.11 76.0977 18.11ZM74.9077 14.93H77.0377C76.9844 14.6167 76.8677 14.3767 76.6877 14.21C76.5144 14.0367 76.291 13.95 76.0177 13.95C75.7244 13.95 75.481 14.03 75.2877 14.19C75.101 14.35 74.9744 14.5967 74.9077 14.93Z" fill="white"/>
<path d="M21.869 14.9267C21.8621 13.6976 22.4354 12.77 23.5959 12.0869C22.9466 11.186 21.9657 10.6904 20.6706 10.5933C19.4445 10.4995 18.1044 11.2865 17.614 11.2865C17.0959 11.2865 15.9078 10.6268 14.9753 10.6268C13.0481 10.6569 11 12.117 11 15.0874C11 15.9648 11.1658 16.8712 11.4973 17.8067C11.9394 19.0357 13.5351 22.0496 15.1998 21.9994C16.0701 21.9793 16.6849 21.3999 17.8177 21.3999C18.916 21.3999 19.4859 21.9994 20.4564 21.9994C22.135 21.9759 23.5786 19.2366 24 18.0042C21.7481 16.9761 21.869 14.9903 21.869 14.9267ZM19.9142 9.4279C20.8571 8.34288 20.7707 7.35498 20.7431 7C19.9107 7.04688 18.9471 7.54921 18.398 8.16874C17.7936 8.83181 17.4378 9.65227 17.5138 10.5765C18.4153 10.6435 19.2372 10.1948 19.9142 9.4279Z" fill="white"/>
</svg>
