<svg width="96" height="92" viewBox="0 0 96 92" fill="none" xmlns="http://www.w3.org/2000/svg">
<ellipse cx="66.4611" cy="63.1479" rx="12.6593" ry="13.0651" fill="#C4C4C4"/>
<path fill-rule="evenodd" clip-rule="evenodd" d="M35.0137 0H36.3956H47.4725C48.6378 0 49.5824 0.974907 49.5824 2.17751C49.5824 3.38012 48.6378 4.35503 47.4725 4.35503H37.7775L32.0744 17.858L47.4966 39.6862L60.3475 12.6504L60.9267 11.432H62.2418H70.6813C71.8466 11.432 72.7912 12.4069 72.7912 13.6095C72.7912 14.8121 71.8466 15.787 70.6813 15.787H63.5568L60.0913 23.0777L64.388 28.0664C67.2667 26.1521 70.6945 25.0414 74.3736 25.0414C84.5697 25.0414 92.8352 33.5719 92.8352 44.0947C92.8352 49.9053 90.3149 55.1084 86.341 58.6032C87.1283 60.6869 87.5604 62.9541 87.5604 65.3254C87.5604 69.5125 86.2133 73.3748 83.9419 76.476L95.382 88.2827C96.206 89.1331 96.206 90.5118 95.382 91.3622C94.5581 92.2126 93.2222 92.2126 92.3982 91.3622L81.0202 79.6196C77.9222 82.2529 73.9532 83.8343 69.6264 83.8343C59.7217 83.8343 51.6923 75.5476 51.6923 65.3254C51.6923 59.9518 53.9112 55.113 57.4549 51.7317C56.7317 50.0276 56.2431 48.1932 56.0313 46.2722H48.0266C47.9773 46.2728 47.928 46.2716 47.8788 46.2687C47.2708 46.2331 46.7316 45.9319 46.3686 45.4756C46.3376 45.4367 46.3079 45.3966 46.2796 45.3555L30.1205 22.4842L27.9085 27.7215C33.3072 31.0465 36.9231 37.1348 36.9231 44.0947C36.9231 54.6175 28.6576 63.1479 18.4615 63.1479C8.26551 63.1479 0 54.6175 0 44.0947C0 33.5719 8.26551 25.0414 18.4615 25.0414C20.4134 25.0414 22.2945 25.354 24.0604 25.9334L27.4284 17.9592C27.4303 17.3722 27.6613 16.7928 28.0985 16.3726L34.4615 1.30741L35.0137 0ZM59.6592 55.6034C57.3364 58.139 55.9121 61.5606 55.9121 65.3254C55.9121 73.1424 62.0522 79.4793 69.6264 79.4793C77.2006 79.4793 83.3407 73.1424 83.3407 65.3254C83.3407 63.852 83.1225 62.4311 82.7177 61.0954C80.2117 62.4081 77.3764 63.1479 74.3736 63.1479C68.3672 63.1479 63.0306 60.1875 59.6592 55.6034ZM80.8495 57.189C78.9067 58.2144 76.7056 58.7929 74.3736 58.7929C69.7231 58.7929 65.5931 56.4924 62.994 52.9339C64.9595 51.8109 67.2206 51.1716 69.6264 51.1716C74.2662 51.1716 78.3678 53.5495 80.8495 57.189ZM84.281 54.6535C81.0335 49.9123 75.6802 46.8166 69.6264 46.8166C66.4917 46.8166 63.5448 47.6466 60.9808 49.1053C60.6625 48.1991 60.428 47.2514 60.2871 46.2722H75.4286C76.5938 46.2722 77.5385 45.2973 77.5385 44.0947C77.5385 43.3544 77.1805 42.7003 76.6335 42.3069C76.5862 42.2369 76.5344 42.169 76.4781 42.1036L67.2359 31.3729C69.3344 30.1161 71.7726 29.3965 74.3736 29.3965C82.2391 29.3965 88.6154 35.9771 88.6154 44.0947C88.6154 48.2384 86.9539 51.9817 84.281 54.6535ZM56.0313 41.9172H51.1363L58.0835 27.3017L61.1216 30.8291C58.3576 33.7697 56.5042 37.6273 56.0313 41.9172ZM16.5274 43.7689L22.3621 29.9545C21.1225 29.591 19.814 29.3965 18.4615 29.3965C10.596 29.3965 4.21978 35.9771 4.21978 44.0947C4.21978 52.2123 10.596 58.7929 18.4615 58.7929C26.327 58.7929 32.7033 52.2123 32.7033 44.0947C32.7033 38.9236 30.1159 34.3763 26.2043 31.7564L20.3957 45.5092C19.93 46.6116 18.6866 47.1157 17.6185 46.6352C16.5503 46.1546 16.0618 44.8714 16.5274 43.7689ZM70.6716 41.9172H60.2871C60.7185 38.919 62.0272 36.2162 63.9351 34.0957L70.6716 41.9172Z" fill="black"/>
</svg>
