<svg width="44" height="28" viewBox="0 0 44 28" fill="none" xmlns="http://www.w3.org/2000/svg">
<path fill-rule="evenodd" clip-rule="evenodd" d="M8.62092 2.79208C10.7314 0.68629 13.5245 -1.13247e-05 15.4624 1.40154e-10C19.2838 1.40154e-10 21.668 1.2118 23.2214 2.80099C24.4062 4.01309 25.0735 5.43762 25.5154 6.40837C29.1035 5.98645 31.6242 6.78765 33.3034 8.14797C34.6953 9.27559 35.4275 10.7229 35.7244 11.9719C38.6266 11.9668 40.5727 12.8749 41.8418 14.2489C43.1967 15.7158 43.6329 17.5622 43.83 18.8486C44.3618 22.3207 43.5805 24.6281 42.3633 26.08C41.1933 27.4755 39.6761 28 38.859 28H6.00418C5.07247 28 3.66361 27.7209 2.42765 26.5869C1.18207 25.444 0.239761 23.5504 0.0278792 20.571C-0.193153 17.4628 0.925362 15.3898 2.4867 14.1234C3.56806 13.2463 4.81622 12.7917 5.8704 12.6051C5.35808 7.94617 6.61327 4.79531 8.62092 2.79208ZM10.0336 4.20786C8.43054 5.80735 7.22965 8.58427 7.98756 13.3427L8.17189 14.5H7.00001C6.18733 14.5 4.82996 14.7979 3.74658 15.6766C2.71884 16.5103 1.84563 17.9372 2.02284 20.4291C2.2092 23.0496 3.00912 24.4061 3.7798 25.1132C4.56009 25.8291 5.44151 26 6.00416 26H38.8591C38.859 26 38.8607 26 38.8641 25.9999C38.8674 25.9997 38.8722 25.9994 38.8785 25.9989C38.885 25.9984 38.8928 25.9976 38.9017 25.9965C38.9101 25.9955 38.9196 25.9943 38.9301 25.9927C38.974 25.9861 39.0312 25.9747 39.1002 25.9564C39.2386 25.9196 39.4114 25.8585 39.6039 25.7649C39.9881 25.5779 40.432 25.2706 40.8307 24.795C41.6046 23.8719 42.3168 22.1793 41.853 19.1514C41.6732 17.9776 41.3129 16.624 40.3726 15.6059C39.4748 14.6339 37.8993 13.8122 34.9393 13.998L33.9495 14.0602L33.8792 13.0709C33.8129 12.1396 33.3219 10.7369 32.0444 9.70202C30.7936 8.68873 28.6531 7.92056 25.0773 8.48766L24.3524 8.60261L24.0254 7.94564C23.9092 7.71216 23.7967 7.46737 23.6808 7.21505C23.2369 6.24868 22.7423 5.17208 21.7912 4.19902C20.6565 3.03821 18.8094 2 15.4624 2C13.9159 1.99999 11.6814 2.56366 10.0336 4.20786Z" fill="#4A705F"/>
</svg>
