<svg width="49" height="32" viewBox="0 0 49 32" fill="none" xmlns="http://www.w3.org/2000/svg">
<path d="M26.2644 31C26.2644 30.6 26.2644 25.1667 26.2644 22.5M26.2644 22.5C26.2644 20.2393 27.1948 17.345 28.9623 15M26.2644 22.5C26.2644 20.3703 25.7401 17.0188 22.6862 14M13.1149 8.99994C17.7088 10.2528 20.7212 12.0576 22.6862 14M38.908 10.9999C34.4747 10.1233 31.104 12.1583 28.9623 15M28.9623 15C30.2545 16.8333 34.9334 20.9292 38.908 17C40.4253 15.5 41.4368 13.5 42.954 10.4999C43.6692 9.08579 45.4828 4.6666 47 2.49993C42.2797 1.16659 34.7018 1.20711 30.8161 4.49993C27.2759 7.50002 27.2759 13 28.9623 15ZM22.6862 14C24.5533 10.8334 25.2529 1 15.1379 1L8.56322 1L3 1C5.52874 3 7.62529 9.2182 8.56322 12C9.57471 15 11.5977 19 16.6552 19C18.5291 19 21.2069 17.5 22.6862 14Z" stroke="#4A705F" stroke-width="2" stroke-linecap="round"/>
</svg>
