<svg width="42" height="27" viewBox="0 0 42 27" fill="none" xmlns="http://www.w3.org/2000/svg">
<path fill-rule="evenodd" clip-rule="evenodd" d="M16.4671 0H15.8294L15.5604 0.578212L12.5981 6.9461L12.4391 7.06633L12.5029 7.15077L10.8322 10.7423C10.0487 10.5143 9.21577 10.3915 8.35225 10.3915C3.73943 10.3915 0 13.8955 0 18.2178C0 22.5401 3.73943 26.0441 8.35225 26.0441C12.9651 26.0441 16.7045 22.5401 16.7045 18.2178C16.7045 15.3784 15.0909 12.8922 12.676 11.5205L13.8684 8.95714L20.9604 18.3388C20.9777 18.4828 21.0257 18.6174 21.0976 18.7359C21.1698 18.8554 21.2678 18.961 21.3887 19.0434C21.4441 19.0813 21.5035 19.1139 21.5662 19.1402L21.7588 19.3949L21.9931 19.2178H25.3625C25.8865 23.0679 29.3959 26.0441 33.6472 26.0441C38.26 26.0441 41.9994 22.5401 41.9994 18.2178C41.9994 13.8955 38.26 10.3915 33.6472 10.3915C32.1823 10.3915 30.8054 10.7449 29.6085 11.3657L27.7957 9.21402L28.7629 7.36658H31.9758C32.5281 7.36658 32.9758 6.91887 32.9758 6.36658C32.9758 5.8143 32.5281 5.36658 31.9758 5.36658H28.1577H27.5524L27.2717 5.90277L25.56 9.17239L25.3175 9.37668L25.4011 9.47588L21.8685 16.2235L14.8235 6.90401L17.1048 2H21.4785C22.0308 2 22.4785 1.55228 22.4785 1C22.4785 0.447715 22.0308 0 21.4785 0H16.4671ZM23.6054 17.2178H25.3625C25.6149 15.3633 26.5599 13.7116 27.9469 12.4975L26.7934 11.1284L23.6054 17.2178ZM9.9767 12.5813L7.44682 18.0196C7.21387 18.5204 7.43097 19.1152 7.93173 19.3481C8.43248 19.5811 9.02726 19.364 9.26021 18.8632L11.8302 13.3387C13.588 14.3999 14.7045 16.2333 14.7045 18.2178C14.7045 21.315 11.985 24.0441 8.35225 24.0441C4.71947 24.0441 2 21.315 2 18.2178C2 15.1206 4.71947 12.3915 8.35225 12.3915C8.91817 12.3915 9.46193 12.4577 9.9767 12.5813ZM33.6472 24.0441C37.28 24.0441 39.9994 21.315 39.9994 18.2178C39.9994 15.1206 37.28 12.3915 33.6472 12.3915C32.6653 12.3915 31.7502 12.5909 30.9374 12.943L34.6504 17.3499L34.6836 17.3893C34.8362 17.4927 34.9587 17.6371 35.0353 17.8068L35.2947 18.1146L35.1226 18.2597C35.1006 18.7925 34.6617 19.2178 34.1234 19.2178H33.9854L33.7652 19.4033L33.6089 19.2178H27.3902C27.9008 21.8794 30.4117 24.0441 33.6472 24.0441ZM27.3902 17.2178H31.9239L29.2355 14.027C28.2809 14.8781 27.6246 15.9956 27.3902 17.2178Z" fill="#4A705F"/>
</svg>
