<svg width="25" height="25" viewBox="0 0 25 25" fill="none" xmlns="http://www.w3.org/2000/svg">
<path d="M5.058 23C5.05813 23.5306 5.26903 24.0393 5.64429 24.4144C6.01955 24.7895 6.52843 25.0001 7.059 25C7.58957 24.9999 8.09835 24.789 8.47342 24.4137C8.84849 24.0385 9.05913 23.5296 9.059 22.999C9.05893 22.7363 9.00712 22.4762 8.90653 22.2335C8.80593 21.9908 8.65852 21.7703 8.47271 21.5846C8.2869 21.3989 8.06633 21.2516 7.8236 21.1511C7.58086 21.0506 7.32071 20.9989 7.058 20.999C6.79529 20.9991 6.53517 21.0509 6.29248 21.1515C6.04979 21.2521 5.8293 21.3995 5.64358 21.5853C5.45786 21.7711 5.31056 21.9917 5.21009 22.2344C5.10961 22.4771 5.05793 22.7373 5.058 23ZM17.137 23C17.137 24.104 18.033 25 19.137 25C20.241 25 21.079 24.104 21.079 23C21.079 21.896 20.241 21 19.137 21C18.033 21 17.137 21.896 17.137 23ZM0 1C0 1.26522 0.105357 1.51957 0.292893 1.70711C0.48043 1.89464 0.734784 2 1 2H2.078L2.972 5.341L5.058 13C5.058 13.072 5.092 13.134 5.1 13.204L4.082 17.784C4.04909 17.9302 4.04954 18.0819 4.08332 18.2278C4.1171 18.3738 4.18334 18.5102 4.27712 18.6271C4.3709 18.7439 4.4898 18.8381 4.62499 18.9027C4.76018 18.9672 4.90818 19.0005 5.058 19H21.768C22.0332 19 22.2876 18.8946 22.4751 18.7071C22.6626 18.5196 22.768 18.2652 22.768 18C22.768 17.7348 22.6626 17.4804 22.4751 17.2929C22.2876 17.1054 22.0332 17 21.768 17H6.306L6.764 14.939C6.864 14.956 6.954 15 7.058 15H19.368C20.472 15 21.08 14.782 21.612 13.5L24.86 6.536C25.423 4.75 24.186 4 23.079 4H5.058C4.901 4 4.766 4.054 4.62 4.088L3.844 0.772C3.79256 0.552307 3.66832 0.356469 3.4915 0.216313C3.31467 0.0761578 3.09564 -7.64004e-05 2.87 5.74556e-08L1 5.74556e-08C0.734784 5.74556e-08 0.48043 0.105357 0.292893 0.292893C0.105357 0.48043 0 0.734784 0 1ZM5.098 6H22.93L19.738 12.798C19.7 12.884 19.668 12.945 19.644 12.988C19.577 12.994 19.531 13 19.367 13H7.058V12.802L7.02 12.607L5.098 6Z" fill="black"/>
</svg>
