<svg width="12" height="12" viewBox="0 0 12 12" fill="none" xmlns="http://www.w3.org/2000/svg">
<path d="M1.28526 1.20008L2.40547 8.48148C2.41363 8.54159 2.43068 8.59886 2.45526 8.65194C2.52925 8.81171 2.67147 8.93344 2.84453 8.97974C2.89739 8.99395 2.9528 9.00104 3.00947 9.00008H9.6C9.86496 9.00008 10.0986 8.82628 10.1747 8.57249L11.9747 2.57249C12.0292 2.39083 11.9946 2.19409 11.8814 2.04192C11.7682 1.88976 11.5897 1.80008 11.4 1.80008H2.59168L2.39435 0.517397C2.38696 0.463768 2.37248 0.4124 2.35188 0.364271C2.31451 0.276625 2.25728 0.200705 2.18658 0.141197C2.12098 0.0858826 2.04336 0.0443767 1.9582 0.0211589C1.9046 0.00648037 1.84836 -0.000871804 1.79082 8.23977e-05H0.6C0.268629 8.23977e-05 0 0.268711 0 0.600082C0 0.931453 0.268629 1.20008 0.6 1.20008H1.28526ZM3.51476 7.80008L2.7763 3.00008H10.5936L9.15358 7.80008H3.51476Z" fill="white"/>
<path d="M4.8 10.8001C4.8 11.4628 4.26274 12.0001 3.6 12.0001C2.93726 12.0001 2.4 11.4628 2.4 10.8001C2.4 10.1373 2.93726 9.60008 3.6 9.60008C4.26274 9.60008 4.8 10.1373 4.8 10.8001Z" fill="white"/>
<path d="M10.2 10.8001C10.2 11.4628 9.66274 12.0001 9 12.0001C8.33726 12.0001 7.8 11.4628 7.8 10.8001C7.8 10.1373 8.33726 9.60008 9 9.60008C9.66274 9.60008 10.2 10.1373 10.2 10.8001Z" fill="white"/>
</svg>
