<svg width="12" height="11" viewBox="0 0 12 11" fill="none" xmlns="http://www.w3.org/2000/svg">
<path d="M6 0.951704C4.58651 -0.363268 2.41275 -0.315565 1.05442 1.09481C-0.351472 2.55456 -0.351472 4.92129 1.05442 6.38104L5.15147 10.6351C5.6201 11.1216 6.3799 11.1216 6.84853 10.6351L10.9456 6.38104C12.3515 4.92129 12.3515 2.55456 10.9456 1.09481C9.58725 -0.315565 7.4135 -0.363268 6 0.951704ZM5.29706 1.97585L5.57574 2.26521C5.81005 2.5085 6.18995 2.5085 6.42426 2.26521L6.70294 1.97585C7.6402 1.00268 9.1598 1.00268 10.0971 1.97585C11.0343 2.94902 11.0343 4.52683 10.0971 5.5L6 9.75402L1.90294 5.5C0.965685 4.52683 0.965685 2.94902 1.90294 1.97585C2.8402 1.00268 4.3598 1.00268 5.29706 1.97585Z" fill="#4A705F"/>
</svg>
