<svg width="24" height="20" viewBox="0 0 24 20" fill="none" xmlns="http://www.w3.org/2000/svg">
<path d="M0.766113 10.93L3.70311 12.417M0.860113 6.94196L3.67211 8.44796M2.04511 3.62596L3.73411 4.66696M10.8591 2.85896L19.1091 7.07396M14.0621 1.22196L7.87411 4.38396C7.52911 4.56293 7.24016 4.83358 7.03903 5.16615C6.8379 5.49871 6.73239 5.88031 6.73411 6.26896V13.148C6.73249 13.5367 6.83815 13.9184 7.03946 14.251C7.24077 14.5835 7.52993 14.8541 7.87511 15.033L14.0621 18.194C14.3476 18.3403 14.6638 18.4167 14.9846 18.4167C15.3054 18.4167 15.6216 18.3403 15.9071 18.194L22.0941 15.033C22.4392 14.8541 22.7282 14.5835 22.9293 14.2509C23.1305 13.9183 23.2359 13.5366 23.2341 13.148V6.26896C23.2362 5.88024 23.1308 5.49851 22.9296 5.16588C22.7285 4.83325 22.4393 4.56266 22.0941 4.38396L15.9071 1.22196C15.6215 1.07607 15.3053 1 14.9846 1C14.6639 1 14.3477 1.07607 14.0621 1.22196Z" stroke="black" stroke-width="1.5" stroke-linecap="round" stroke-linejoin="round"/>
<path d="M22.908 5.13306L14.984 9.18106M14.984 9.18106L7.06104 5.13306M14.984 9.18106V18.4171M19.109 7.07406V9.98606" stroke="black" stroke-width="1.5" stroke-linecap="round" stroke-linejoin="round"/>
</svg>
