<svg width="90" height="28" viewBox="0 0 90 28" fill="none" xmlns="http://www.w3.org/2000/svg">
<rect x="0.5" y="0.5" width="89" height="27" rx="13.5" stroke="white"/>
<path d="M31.0797 18.16C30.4464 18.16 29.8831 18.01 29.3897 17.71C28.9031 17.41 28.5197 16.9867 28.2397 16.44C27.9664 15.8867 27.8297 15.24 27.8297 14.5C27.8297 13.7533 27.9664 13.1067 28.2397 12.56C28.5197 12.0067 28.9031 11.58 29.3897 11.28C29.8831 10.9733 30.4464 10.82 31.0797 10.82C31.4731 10.82 31.8464 10.8767 32.1997 10.99C32.5531 11.0967 32.8664 11.2467 33.1397 11.44C33.2997 11.5467 33.3831 11.6733 33.3897 11.82C33.4031 11.96 33.3531 12.1033 33.2397 12.25C33.1197 12.3967 32.9931 12.4733 32.8597 12.48C32.7264 12.4867 32.5797 12.44 32.4197 12.34C32.2331 12.22 32.0264 12.1267 31.7997 12.06C31.5731 11.9867 31.3331 11.95 31.0797 11.95C30.6597 11.95 30.2964 12.0567 29.9897 12.27C29.6897 12.4833 29.4564 12.7833 29.2897 13.17C29.1231 13.55 29.0397 13.9933 29.0397 14.5C29.0397 15 29.1231 15.4433 29.2897 15.83C29.4564 16.21 29.6897 16.5067 29.9897 16.72C30.2964 16.9333 30.6597 17.04 31.0797 17.04C31.3931 17.04 31.6531 17.01 31.8597 16.95C32.0731 16.8833 32.2597 16.8033 32.4197 16.71V15.21H31.8597C31.4664 15.21 31.2697 15.03 31.2697 14.67C31.2697 14.31 31.4664 14.13 31.8597 14.13H32.9997C33.3931 14.13 33.5897 14.33 33.5897 14.73V17C33.5897 17.1667 33.5631 17.3067 33.5097 17.42C33.4631 17.5267 33.3731 17.61 33.2397 17.67C32.9531 17.8167 32.6231 17.9333 32.2497 18.02C31.8831 18.1133 31.4931 18.16 31.0797 18.16ZM36.8196 18.11C36.3796 18.11 35.983 18.0067 35.6296 17.8C35.283 17.5867 35.0063 17.2933 34.7996 16.92C34.5996 16.54 34.4996 16.0967 34.4996 15.59C34.4996 15.0833 34.5996 14.6433 34.7996 14.27C35.0063 13.89 35.283 13.5967 35.6296 13.39C35.983 13.1767 36.3796 13.07 36.8196 13.07C37.273 13.07 37.673 13.1767 38.0196 13.39C38.373 13.5967 38.6496 13.89 38.8496 14.27C39.0496 14.6433 39.1496 15.0833 39.1496 15.59C39.1496 16.0967 39.0496 16.54 38.8496 16.92C38.6496 17.2933 38.373 17.5867 38.0196 17.8C37.673 18.0067 37.273 18.11 36.8196 18.11ZM36.8196 17.09C37.173 17.09 37.4596 16.96 37.6796 16.7C37.9063 16.44 38.0196 16.07 38.0196 15.59C38.0196 15.11 37.9063 14.74 37.6796 14.48C37.4596 14.22 37.173 14.09 36.8196 14.09C36.473 14.09 36.1896 14.22 35.9696 14.48C35.7496 14.74 35.6396 15.11 35.6396 15.59C35.6396 16.07 35.7496 16.44 35.9696 16.7C36.1896 16.96 36.473 17.09 36.8196 17.09ZM42.1907 18.11C41.7507 18.11 41.3541 18.0067 41.0007 17.8C40.6541 17.5867 40.3774 17.2933 40.1707 16.92C39.9707 16.54 39.8707 16.0967 39.8707 15.59C39.8707 15.0833 39.9707 14.6433 40.1707 14.27C40.3774 13.89 40.6541 13.5967 41.0007 13.39C41.3541 13.1767 41.7507 13.07 42.1907 13.07C42.6441 13.07 43.0441 13.1767 43.3907 13.39C43.7441 13.5967 44.0207 13.89 44.2207 14.27C44.4207 14.6433 44.5207 15.0833 44.5207 15.59C44.5207 16.0967 44.4207 16.54 44.2207 16.92C44.0207 17.2933 43.7441 17.5867 43.3907 17.8C43.0441 18.0067 42.6441 18.11 42.1907 18.11ZM42.1907 17.09C42.5441 17.09 42.8307 16.96 43.0507 16.7C43.2774 16.44 43.3907 16.07 43.3907 15.59C43.3907 15.11 43.2774 14.74 43.0507 14.48C42.8307 14.22 42.5441 14.09 42.1907 14.09C41.8441 14.09 41.5607 14.22 41.3407 14.48C41.1207 14.74 41.0107 15.11 41.0107 15.59C41.0107 16.07 41.1207 16.44 41.3407 16.7C41.5607 16.96 41.8441 17.09 42.1907 17.09ZM47.4618 19.99C46.7085 19.99 46.1118 19.77 45.6718 19.33C45.5318 19.1833 45.4752 19.04 45.5018 18.9C45.5285 18.76 45.6152 18.6433 45.7618 18.55C45.9085 18.45 46.0418 18.4167 46.1618 18.45C46.2818 18.4833 46.4152 18.5567 46.5618 18.67C46.7952 18.87 47.0952 18.97 47.4618 18.97C47.8552 18.97 48.1452 18.85 48.3318 18.61C48.5185 18.37 48.6118 17.9867 48.6118 17.46V17.19C48.2985 17.5167 47.9018 17.68 47.4218 17.68C47.0018 17.68 46.6252 17.5933 46.2918 17.42C45.9652 17.24 45.7085 16.98 45.5218 16.64C45.3352 16.2933 45.2418 15.87 45.2418 15.37C45.2418 14.8633 45.3352 14.44 45.5218 14.1C45.7085 13.76 45.9652 13.5033 46.2918 13.33C46.6252 13.1567 47.0018 13.07 47.4218 13.07C47.6818 13.07 47.9318 13.1267 48.1718 13.24C48.4118 13.3467 48.6085 13.53 48.7618 13.79V13.62C48.7618 13.4533 48.8052 13.34 48.8918 13.28C48.9785 13.22 49.0985 13.19 49.2518 13.19C49.5718 13.19 49.7318 13.3867 49.7318 13.78V17.46C49.7318 18.2533 49.5452 18.8733 49.1718 19.32C48.8052 19.7667 48.2352 19.99 47.4618 19.99ZM47.5118 16.69C47.8585 16.69 48.1418 16.5733 48.3618 16.34C48.5818 16.1 48.6918 15.7767 48.6918 15.37C48.6918 14.9567 48.5818 14.6367 48.3618 14.41C48.1418 14.1767 47.8585 14.06 47.5118 14.06C47.1652 14.06 46.8885 14.1767 46.6818 14.41C46.4818 14.6367 46.3818 14.9567 46.3818 15.37C46.3818 15.7767 46.4818 16.1 46.6818 16.34C46.8885 16.5733 47.1652 16.69 47.5118 16.69ZM51.5306 18C51.1506 18 50.9606 17.8033 50.9606 17.41V11.46C50.9606 11.0667 51.1506 10.87 51.5306 10.87C51.9039 10.87 52.0906 11.0667 52.0906 11.46V17.41C52.0906 17.8033 51.9039 18 51.5306 18ZM55.4141 18.11C54.7141 18.11 54.1474 17.9 53.7141 17.48C53.2808 17.0533 53.0641 16.4233 53.0641 15.59C53.0641 15.07 53.1608 14.6233 53.3541 14.25C53.5474 13.87 53.8174 13.58 54.1641 13.38C54.5108 13.1733 54.9074 13.07 55.3541 13.07C55.8008 13.07 56.1808 13.1733 56.4941 13.38C56.8074 13.5867 57.0474 13.8533 57.2141 14.18C57.3808 14.5067 57.4641 14.8467 57.4641 15.2C57.4641 15.4467 57.4141 15.61 57.3141 15.69C57.2141 15.7633 57.0674 15.8 56.8741 15.8H54.1741C54.2008 16.28 54.3274 16.6233 54.5541 16.83C54.7808 17.03 55.0741 17.13 55.4341 17.13C55.8408 17.13 56.1574 16.99 56.3841 16.71C56.5174 16.57 56.6408 16.48 56.7541 16.44C56.8741 16.3933 57.0008 16.4167 57.1341 16.51C57.2674 16.6033 57.3441 16.7233 57.3641 16.87C57.3841 17.0167 57.3241 17.17 57.1841 17.33C56.9574 17.6033 56.6974 17.8033 56.4041 17.93C56.1108 18.05 55.7808 18.11 55.4141 18.11ZM54.2241 14.93H56.3541C56.3008 14.6167 56.1841 14.3767 56.0041 14.21C55.8308 14.0367 55.6074 13.95 55.3341 13.95C55.0408 13.95 54.7974 14.03 54.6041 14.19C54.4174 14.35 54.2908 14.5967 54.2241 14.93ZM62.0017 18C61.6217 18 61.4317 17.8033 61.4317 17.41V11.59C61.4317 11.1967 61.6283 11 62.0217 11H64.6317C65.285 11 65.8017 11.1533 66.1817 11.46C66.5683 11.7667 66.7617 12.2833 66.7617 13.01C66.7617 13.7367 66.5683 14.2567 66.1817 14.57C65.8017 14.8833 65.285 15.04 64.6317 15.04H62.5817V17.41C62.5817 17.8033 62.3883 18 62.0017 18ZM62.5817 13.96H64.4717C64.8117 13.96 65.075 13.8867 65.2617 13.74C65.4483 13.5933 65.5417 13.35 65.5417 13.01C65.5417 12.6767 65.4483 12.4367 65.2617 12.29C65.075 12.1433 64.8117 12.07 64.4717 12.07H62.5817V13.96ZM68.2103 18C67.8303 18 67.6403 17.8033 67.6403 17.41V11.46C67.6403 11.0667 67.8303 10.87 68.2103 10.87C68.5836 10.87 68.7703 11.0667 68.7703 11.46V17.41C68.7703 17.8033 68.5836 18 68.2103 18ZM71.5738 18.07C71.0538 18.09 70.6238 17.9767 70.2838 17.73C69.9505 17.4833 69.7838 17.1267 69.7838 16.66C69.7838 16.32 69.8871 16.03 70.0938 15.79C70.3005 15.55 70.5671 15.3633 70.8938 15.23C71.2205 15.09 71.5571 15.0167 71.9038 15.01C72.0771 14.9967 72.2405 15.01 72.3938 15.05C72.5471 15.09 72.6838 15.1467 72.8038 15.22V14.8C72.8038 14.4867 72.7371 14.2833 72.6038 14.19C72.4705 14.0967 72.2738 14.05 72.0138 14.05C71.8271 14.05 71.6305 14.0733 71.4238 14.12C71.2238 14.1667 71.0271 14.23 70.8338 14.31C70.6605 14.3833 70.5105 14.41 70.3838 14.39C70.2638 14.37 70.1638 14.29 70.0838 14.15C70.0038 14.01 69.9838 13.8767 70.0238 13.75C70.0705 13.6167 70.1838 13.5133 70.3638 13.44C70.6038 13.3267 70.8638 13.2367 71.1438 13.17C71.4305 13.1033 71.7205 13.07 72.0138 13.07C72.6338 13.07 73.1005 13.1967 73.4138 13.45C73.7271 13.6967 73.8838 14.1467 73.8838 14.8V17.01C73.8838 17.0767 73.8905 17.13 73.9038 17.17C73.9238 17.21 73.9405 17.24 73.9538 17.26C74.0138 17.3467 74.0771 17.3967 74.1438 17.41C74.2171 17.4233 74.2805 17.4333 74.3338 17.44C74.3871 17.44 74.4138 17.47 74.4138 17.53C74.4138 17.65 74.3805 17.7533 74.3138 17.84C74.2538 17.9267 74.1505 17.9867 74.0038 18.02C73.8505 18.0533 73.7005 18.07 73.5538 18.07C73.3471 18.07 73.1871 18.0367 73.0738 17.97C72.9671 17.8967 72.8905 17.7767 72.8438 17.61C72.6771 17.75 72.4838 17.86 72.2638 17.94C72.0438 18.0133 71.8138 18.0567 71.5738 18.07ZM71.5538 17.09C71.9271 17.0767 72.2338 17.0033 72.4738 16.87C72.7205 16.7367 72.8371 16.5467 72.8238 16.3C72.8171 16.14 72.7338 16.03 72.5738 15.97C72.4205 15.91 72.2271 15.8867 71.9938 15.9C71.6671 15.9067 71.3971 15.99 71.1838 16.15C70.9705 16.3033 70.8671 16.4767 70.8738 16.67C70.8871 16.97 71.1138 17.11 71.5538 17.09ZM75.7403 19.99H75.4703C75.2836 19.9767 75.1436 19.9167 75.0503 19.81C74.9569 19.71 74.9103 19.5767 74.9103 19.41C74.9103 19.0767 75.0236 18.9267 75.2503 18.96C75.3169 18.9667 75.3803 18.97 75.4403 18.97C75.5003 18.9767 75.5603 18.98 75.6203 18.98C75.8003 18.98 75.9336 18.96 76.0203 18.92C76.1136 18.88 76.1869 18.8133 76.2403 18.72C76.2936 18.6267 76.3536 18.5 76.4203 18.34L76.5503 17.99L74.9203 13.87C74.8403 13.6567 74.8303 13.49 74.8903 13.37C74.9503 13.25 75.0669 13.19 75.2403 13.19H75.3103C75.6503 13.19 75.8736 13.3467 75.9803 13.66L77.0403 16.64L78.0303 13.67C78.1436 13.35 78.3669 13.19 78.7003 13.19C78.8936 13.19 79.0269 13.25 79.1003 13.37C79.1736 13.49 79.1736 13.6567 79.1003 13.87L77.3803 18.67C77.2203 19.11 77.0236 19.44 76.7903 19.66C76.5636 19.88 76.2136 19.99 75.7403 19.99Z" fill="white"/>
<path d="M18.7625 13.8656L12.3162 7.38093L20.5179 12.1045L18.7625 13.8656ZM10.6338 7C10.2541 7.19926 10 7.56261 10 8.03438V20.9656C10 21.4374 10.2541 21.8007 10.6338 22L18.1287 14.4985L10.6338 7ZM23.0532 13.6107L21.3328 12.6114L19.4138 14.5015L21.3328 16.3915L23.0882 15.3923C23.614 14.9732 23.614 14.0297 23.0532 13.6107ZM12.3162 21.622L20.5179 16.8984L18.7625 15.1373L12.3162 21.622Z" fill="white"/>
</svg>
