<svg width="90" height="87" viewBox="0 0 90 87" fill="none" xmlns="http://www.w3.org/2000/svg">
<path d="M3 4H83V12C83 13.1046 82.1046 14 81 14H3V4Z" fill="#C4C4C4"/>
<path d="M30 74H46" stroke="black" stroke-width="4" stroke-linecap="round"/>
<path d="M30 64H60" stroke="black" stroke-width="4" stroke-linecap="round"/>
<path d="M30 54H60" stroke="black" stroke-width="4" stroke-linecap="round"/>
<path fill-rule="evenodd" clip-rule="evenodd" d="M51.8032 29.1194C50.9385 25.0516 47.3256 22 43 22C38.6744 22 35.0615 25.0516 34.1968 29.1194C34.4718 29.175 34.74 29.2495 35 29.3414V40.6586C34.3744 40.8797 33.7013 41 33 41C29.6863 41 27 38.3137 27 35C27 32.7555 28.2324 30.7989 30.0574 29.7699C30.6772 23.1671 36.2352 18 43 18C49.7648 18 55.3228 23.1671 55.9426 29.7699C57.7676 30.7989 59 32.7555 59 35C59 37.3095 57.6952 39.3142 55.7826 40.3171C55.3843 41.0408 55.0017 41.7196 54.6105 42.2659C53.9949 43.1256 53.2487 43.8319 52.1323 44.2886C51.1191 44.7031 49.9318 44.8542 48.5589 44.9269C47.8889 44.9624 47.122 44.9806 46.245 44.99C45.6954 45.6096 44.8933 46 44 46H42C40.3431 46 39 44.6569 39 43C39 41.3431 40.3431 40 42 40H44C44.8837 40 45.6781 40.3821 46.2271 40.99C47.0505 40.9811 47.7469 40.9643 48.3474 40.9325C49.6307 40.8645 50.2559 40.7344 50.6177 40.5864C50.7559 40.5299 50.8748 40.4643 51 40.3536V29.3414C51.26 29.2495 51.5282 29.175 51.8032 29.1194Z" fill="black"/>
<path fill-rule="evenodd" clip-rule="evenodd" d="M84 4H6C4.89543 4 4 4.89543 4 6V14C4 15.1046 4.89543 16 6 16H15V15C15 11.6863 17.6863 9 21 9H69C72.3137 9 75 11.6863 75 15V16H84C85.1046 16 86 15.1046 86 14V6C86 4.89543 85.1046 4 84 4ZM75 20V81C75 84.3137 72.3137 87 69 87H37V83H69C70.1046 83 71 82.1046 71 81V15C71 13.8954 70.1046 13 69 13H21C19.8954 13 19 13.8954 19 15V81C19 82.1046 19.8954 83 21 83H27V87H21C17.6863 87 15 84.3137 15 81V20H6C2.68629 20 0 17.3137 0 14V6C0 2.68629 2.68629 0 6 0H84C87.3137 0 90 2.68629 90 6V14C90 17.3137 87.3137 20 84 20H75Z" fill="black"/>
</svg>
