<svg width="14" height="18" viewBox="0 0 14 18" fill="none" xmlns="http://www.w3.org/2000/svg">
<path d="M6.90024 0.000805224C5.07859 0.0521454 3.34627 0.807815 2.06186 2.11139C0.777454 3.41497 0.0393152 5.16663 0.000242712 7.00377C-0.00921988 8.14793 0.258137 9.27716 0.779149 10.2936C1.30016 11.3101 2.05911 12.1831 2.99024 12.8371C4.11648 13.6168 5.0596 14.636 5.75324 15.8228L7.00024 18.0008L8.27924 15.7673C8.98806 14.5869 9.9394 13.5733 11.0692 12.7947C12.2831 11.9212 13.1884 10.6793 13.6529 9.2504C14.1174 7.82146 14.1169 6.28022 13.6514 4.85161C13.1858 3.423 12.2797 2.1818 11.0652 1.30915C9.85069 0.436506 8.39138 -0.0219102 6.90024 0.000805224ZM6.87524 10.047C6.2819 10.047 5.70188 9.86955 5.20853 9.53715C4.71518 9.20476 4.33067 8.73231 4.1036 8.17956C3.87654 7.6268 3.81713 7.01857 3.93289 6.43177C4.04864 5.84497 4.33436 5.30596 4.75392 4.8829C5.17348 4.45984 5.70803 4.17173 6.28997 4.05501C6.87191 3.93829 7.47512 3.99819 8.02329 4.22715C8.57147 4.45611 9.04001 4.84384 9.36965 5.3413C9.6993 5.83877 9.87524 6.42363 9.87524 7.02192C9.87524 7.82421 9.55917 8.59364 8.99656 9.16095C8.43395 9.72826 7.67089 10.047 6.87524 10.047Z" fill="#2E463B"/>
</svg>
