<svg width="18" height="13" viewBox="0 0 18 13" fill="none" xmlns="http://www.w3.org/2000/svg">
<path d="M0 1.08333C0 0.485025 0.50368 0 1.125 0H16.875C17.4963 0 18 0.485025 18 1.08333C18 1.68164 17.4963 2.16667 16.875 2.16667H1.125C0.50368 2.16667 0 1.68164 0 1.08333ZM0 6.5C0 5.90169 0.50368 5.41667 1.125 5.41667H16.875C17.4963 5.41667 18 5.90169 18 6.5C18 7.09831 17.4963 7.58333 16.875 7.58333H1.125C0.50368 7.58333 0 7.09831 0 6.5ZM0 11.9167C0 11.3184 0.50368 10.8333 1.125 10.8333H16.875C17.4963 10.8333 18 11.3184 18 11.9167C18 12.515 17.4963 13 16.875 13H1.125C0.50368 13 0 12.515 0 11.9167Z" fill="black"/>
</svg>
