<svg width="30" height="27" viewBox="0 0 30 27" fill="none" xmlns="http://www.w3.org/2000/svg">
<path d="M29.9921 13.3084C29.9921 14.246 29.2108 14.9804 28.3253 14.9804H26.6585L26.695 23.3249C26.695 23.4655 26.6846 23.6062 26.6689 23.7468V24.5854C26.6689 25.7366 25.7366 26.6689 24.5854 26.6689H23.752C23.6947 26.6689 23.6374 26.6689 23.5801 26.6637C23.5072 26.6689 23.4343 26.6689 23.3614 26.6689H21.6685H20.4184C19.2673 26.6689 18.3349 25.7366 18.3349 24.5854V23.3353V20.0017C18.3349 19.0797 17.59 18.3349 16.6681 18.3349H13.3345C12.4125 18.3349 11.6677 19.0797 11.6677 20.0017V23.3353V24.5854C11.6677 25.7366 10.7353 26.6689 9.58415 26.6689H8.33404H6.67244C6.59431 26.6689 6.51618 26.6637 6.43805 26.6585C6.37554 26.6637 6.31304 26.6689 6.25053 26.6689H5.41713C4.26599 26.6689 3.33362 25.7366 3.33362 24.5854V18.7516C3.33362 18.7047 3.33362 18.6526 3.33883 18.6058V14.9804H1.66681C0.729229 14.9804 0 14.2512 0 13.3084C0 12.8396 0.156263 12.4229 0.520878 12.0583L13.8762 0.416702C14.2408 0.0520878 14.6575 0 15.0221 0C15.3867 0 15.8034 0.104176 16.116 0.364614L29.4192 12.0583C29.8359 12.4229 30.0442 12.8396 29.9921 13.3084Z" fill="#2E463B"/>
</svg>
