<svg width="119" height="80" viewBox="0 0 119 80" fill="none" xmlns="http://www.w3.org/2000/svg">
<rect x="3" y="3" width="80" height="12" fill="#C4C4C4"/>
<rect x="71" y="42" width="40" height="14" rx="7" fill="#C4C4C4"/>
<rect x="79" y="54" width="40" height="14" rx="7" fill="#C4C4C4"/>
<rect x="68" y="68" width="32" height="6" rx="3" fill="#C4C4C4"/>
<path fill-rule="evenodd" clip-rule="evenodd" d="M96 10V42H104C107.866 42 111 45.134 111 49C111 50.9587 110.196 52.7295 108.899 54H112C115.866 54 119 57.134 119 61C119 64.866 115.866 68 112 68H101.899C103.196 69.2705 104 71.0413 104 73C104 76.866 100.866 80 97 80H71C67.134 80 64 76.866 64 73C64 71.9264 64.2417 70.9093 64.6736 70H10C4.47715 70 0 65.5229 0 60V37H4V60C4 63.3137 6.68629 66 10 66H81.101C79.8045 64.7295 79 62.9587 79 61C79 59.0413 79.8045 57.2705 81.101 56H78C74.134 56 71 52.866 71 49C71 45.134 74.134 42 78 42H92V18.5H4V27H0V10C0 4.47715 4.47715 0 10 0H86C91.5228 0 96 4.47715 96 10ZM10 4H86C89.3137 4 92 6.68629 92 10V14.5H4V10C4 6.68629 6.68629 4 10 4ZM71 70C69.3431 70 68 71.3431 68 73C68 74.6569 69.3431 76 71 76H97C98.6569 76 100 74.6569 100 73C100 71.3431 98.6569 70 97 70H71ZM86 58H92V60C92 61.5367 91.4223 62.9385 90.4722 64H86C84.3431 64 83 62.6569 83 61C83 59.3431 84.3431 58 86 58ZM96 60C96 61.4222 95.7031 62.7751 95.1679 64H112C113.657 64 115 62.6569 115 61C115 59.3431 113.657 58 112 58H96V60ZM92 46H78C76.3431 46 75 47.3431 75 49C75 50.6569 76.3431 52 78 52H92V46ZM96 52H104C105.657 52 107 50.6569 107 49C107 47.3431 105.657 46 104 46H96V52Z" fill="black"/>
<path d="M33.3671 29.1032C32.3192 29.4525 31.7529 30.5851 32.1022 31.633L33.5579 36H28C26.8954 36 26 36.8954 26 38C26 39.1046 26.8954 40 28 40H34.8912L39.0969 52.6172C39.1061 52.6453 39.1158 52.6733 39.1262 52.701C39.2242 52.9636 39.3723 53.1941 39.5558 53.3852C39.7388 53.5764 39.9627 53.7338 40.2206 53.8427C40.3608 53.902 40.508 53.9455 40.6592 53.9718C40.8472 54.0044 41.0416 54.0103 41.2368 53.9868C41.3958 53.9677 41.5513 53.9296 41.7 53.8739C41.9635 53.7756 42.1947 53.6269 42.3861 53.4425C42.5764 53.2598 42.7331 53.0366 42.8417 52.7795C42.8486 52.7631 42.8553 52.7467 42.8618 52.7301C42.8661 52.7191 42.8704 52.708 42.8745 52.6968L48.9996 36.6186L55.1246 52.6967C55.1323 52.7174 55.1403 52.738 55.1487 52.7584L55.1581 52.781C55.2666 53.0375 55.4231 53.2602 55.613 53.4425C55.8048 53.6272 56.0363 53.776 56.3003 53.8743C56.4486 53.9298 56.6037 53.9677 56.7623 53.9868C56.9584 54.0104 57.1536 54.0043 57.3424 53.9713C57.4927 53.945 57.639 53.9017 57.7785 53.8427C58.0356 53.7341 58.2588 53.5774 58.4416 53.3871C58.6259 53.1956 58.7746 52.9645 58.8729 52.701C58.8833 52.6733 58.893 52.6454 58.9022 52.6173L63.1079 40H70C71.1046 40 72 39.1046 72 38C72 36.8954 71.1046 36 70 36H64.4413L65.8969 31.633C66.2462 30.5851 65.6799 29.4525 64.632 29.1032C63.5841 28.7539 62.4515 29.3202 62.1022 30.3681L56.874 46.0528L50.872 30.2977C50.8661 30.2819 50.86 30.2662 50.8536 30.2506C50.75 29.9941 50.5988 29.7704 50.4141 29.586C50.2297 29.4013 50.006 29.2501 49.7496 29.1465C49.6807 29.1186 49.6102 29.0945 49.5385 29.0744C49.1951 28.978 48.8234 28.9724 48.4607 29.0744C48.389 29.0945 48.3185 29.1186 48.2496 29.1465C47.9929 29.2502 47.7692 29.4015 47.5847 29.5863C47.4002 29.7707 47.2491 29.9942 47.1455 30.2506C47.1392 30.2662 47.133 30.282 47.127 30.2979L41.1252 46.0528L35.8969 30.3681C35.5476 29.3202 34.415 28.7539 33.3671 29.1032Z" fill="black"/>
</svg>
