<svg width="30" height="30" viewBox="0 0 30 30" fill="none" xmlns="http://www.w3.org/2000/svg">
<path fill-rule="evenodd" clip-rule="evenodd" d="M1.43582 8.52925V1.42802H8.53806V8.52925H1.43582ZM9.96775 0H0.0078125V9.97221H9.96775V0ZM28.6042 21.4445H28.592L28.6042 21.431V21.4445ZM18.59 28.5837H22.8945V29.9931H24.3159V27.1361H27.1815V25.7544H28.6182V27.1341H30.0001V21.4445H28.6042V24.2711H24.3161V22.8859H22.898V21.4457H24.3104V20.0124H25.73V21.431H28.5918V21.4445L28.604 21.431H28.5918V20.0127L28.604 20.0128H28.604L28.604 20.0129V19.9996H29.9994V12.8619H28.604V12.8484L28.5917 12.8619H28.604V17.134H27.1934V18.5554H28.604V19.9996H28.5919H28.5919L28.5918 19.9995V20.0127L25.7414 20.0007V18.5706H24.3109C24.3069 18.098 24.3029 17.6257 24.2987 17.1531H24.3106L24.3104 17.1529V17.1396H25.7294V15.7214H25.743L25.7294 15.7092V15.7214H24.3104V17.1396H24.2983L24.2986 17.1399L24.2987 17.1531H20.0465V18.5925H21.4154V22.8749H20.0174V22.8617L20.005 22.8749H20.0174V24.2846H21.4186V27.1651H18.5873L18.5872 27.1531L18.574 27.1651H18.5873C18.5884 27.6381 18.5893 28.1107 18.59 28.5837ZM18.5774 28.596V28.5837L18.5863 28.5926L18.5892 28.5955L18.5777 28.5837H18.59L18.5901 28.5964L18.5897 28.596H18.5774ZM18.5774 28.596V29.9916H11.4478V27.1905H12.8391V28.5584H14.2773V27.1838H15.6992V28.596H18.5774ZM22.9026 18.5821H24.2988C24.2992 19.0548 24.2992 19.5279 24.2992 20.0012H22.9026V18.5821ZM28.5704 8.5439V1.44244H21.4635V8.5439H28.5704ZM20.0361 0.00195312H29.9958V9.9645H20.0361V0.00195312ZM8.52856 28.5616H1.42328V21.4589H8.52856V28.5616ZM0 30H9.96061V20.0417H0V30ZM17.1297 5.7256H17.1415C17.1412 6.18808 17.1412 6.6504 17.1412 7.15283H15.7107V8.55646C15.2454 8.55614 14.7798 8.55614 14.2698 8.55614V9.96011H12.8474V5.71009H12.8601L12.8602 5.71022V5.69764H14.2535V0.00488281H12.8464V1.4329H11.4504V4.2831H12.8602V5.69764H12.8475L12.8474 5.69751V5.71009H11.4313V11.4178H11.418L11.4179 11.4177V11.4178H11.4177L11.4179 11.4179V11.4297H8.59033V12.8691H10.0001V14.2787H9.98685L10.0001 14.2908V14.2787H11.4179V11.4297H11.4313L11.4313 11.4298V11.4297H11.4315L11.4313 11.4296V11.4178H12.8451V12.8399H14.2672V15.7092H15.7102V15.7213L15.7237 15.7092H15.7102V11.4097H18.5449V5.7256H17.1415L17.1415 5.71216C17.1417 5.71196 17.1418 5.71188 17.1417 5.71194H17.1415V5.71189C17.1416 5.71185 17.1416 5.71187 17.1415 5.71195L17.1303 5.71195C17.1339 5.23427 17.1373 4.75723 17.1407 4.27977H17.1534L17.1535 4.27986L17.1536 4.26694H18.5521V2.83083C18.0734 2.83083 17.6204 2.83083 17.1672 2.83138L17.1673 2.81813C17.1675 2.8178 17.1632 2.82272 17.1597 2.82667C17.1573 2.82932 17.1554 2.83152 17.1555 2.83139L17.1672 2.83138C17.164 3.15152 17.161 3.47138 17.158 3.7912L17.1536 4.26694H17.1409L17.1408 4.26685L17.1407 4.27977H15.7463V5.71217C16.2246 5.71217 16.6775 5.71217 17.1303 5.71195L17.1302 5.72509L17.1297 5.7256ZM15.7222 9.96696V8.56793H17.1196V9.96696H15.7222ZM2.83274 12.8594H1.4333V14.2546H2.83274V12.8594ZM4.2621 12.8613L2.84455 12.8477L2.84466 11.4468H0.00439453V18.5546H1.41126V17.1277H2.85118V15.7416H4.28964V18.55H5.71349V17.1346H7.1018V12.8617H5.70528V12.8484L5.70539 12.8483H5.70528V12.8482L5.70517 12.8483H5.69291V11.4553H4.27424V12.8483H4.26221L4.2621 12.8482V12.8613ZM4.2621 12.8613L4.27413 12.8614L4.27424 12.8615V12.8483H5.69291V12.8615L5.6928 12.8617H5.69291V12.8618L5.69302 12.8617H5.70528V14.2564H4.2621V12.8613ZM17.141 18.57V18.5824H15.7114V17.1517H15.7238L15.7114 17.1396V17.1517H11.4311V17.1396L11.4312 17.1396L11.4183 17.1396V15.7214H10.0001L10.0002 15.7092L9.98689 15.7214H10.0001C9.99958 16.1947 9.9987 16.6679 9.9976 17.1411L9.98486 17.1411L9.99757 17.1537L9.9976 17.1411L11.4183 17.1396V17.1516L11.4182 17.1517H11.4311V21.4017H12.8706V19.9949H17.141V18.5824H17.1549L17.141 18.57ZM17.1549 25.7212L17.1548 25.7213H17.1428V22.8618H20.0049V22.8749L20.0173 22.8618H20.0049V20.041H18.5658V21.4469H14.2944V22.8594H14.2819L14.2818 22.8594V22.8594H14.2817L14.2818 22.8595V22.8721C13.8171 22.8723 13.3518 22.8723 12.8554 22.8723V24.282H12.843L12.8554 24.2953V24.282H14.2818V22.8721L14.2942 22.8721C14.2943 22.8721 14.2933 22.871 14.2918 22.8695L14.2944 22.8721V22.8594H15.7332V25.7213H17.1428V25.7346L17.1429 25.7344H17.1549V27.153H18.5739V27.1651L18.5871 27.153H18.5739V25.7344H17.1549V25.7212ZM20.0191 14.2763V14.2892L20.0189 14.289H20.0063V14.2761L20.0065 14.2763H20.0191ZM17.1563 15.7065V14.289H20.0063V15.7065H17.1563ZM17.1437 15.7195L17.1437 15.7067L17.1436 15.7065H17.1563V15.7193L17.1564 15.7195L17.1437 15.7195ZM17.1415 17.1395C17.1424 16.6661 17.1432 16.1929 17.1437 15.7195L15.7239 15.7212V15.7091L15.7104 15.7213L15.7239 15.7212V17.1395H15.7116L15.7239 17.1515V17.1395H17.1415ZM17.1415 17.1395H17.155L17.1415 17.1515L17.1415 17.1395ZM22.8815 14.2763H20.0191V11.4521H24.3184C24.3184 11.9175 24.3184 12.3709 24.3177 12.8249H22.8815V14.2763ZM24.3286 12.8384L24.3177 12.8384L24.3177 12.8385V12.8384H24.3176C24.3176 12.8384 24.3176 12.8384 24.3177 12.8383L24.3177 12.8249H24.3289L24.3264 12.8279L24.328 12.8261L24.3286 12.8255C24.3286 12.8254 24.3287 12.8254 24.3287 12.8255L24.3286 12.8384ZM28.5917 12.8482V11.4565H25.7234V12.8378C25.2374 12.8378 24.7832 12.8378 24.3286 12.8384C24.3281 13.3131 24.3281 13.7879 24.3281 14.3044H25.7431V15.7091H25.7295L25.7431 15.7213V15.7091H27.1516V12.8482H28.5917ZM28.5917 12.8482V12.8616L28.604 12.8482H28.5917ZM17.1554 2.81735H17.1676L17.159 2.82707C17.157 2.82945 17.1553 2.8313 17.1554 2.83117L17.1554 2.81735ZM17.1561 1.39675C17.1561 1.88925 17.1561 2.35311 17.1554 2.81735H15.7529V0.012207H18.5506V1.39675H17.1561ZM9.98485 17.1537V17.1411L9.99756 17.1537H9.98485ZM9.98485 17.1537V18.5479H8.5835V17.1537H9.98485ZM17.1549 17.1517H17.1415L17.1549 17.1396V17.1517ZM17.1549 18.57V17.1517H18.5478V18.57H17.1549ZM17.1549 18.57V18.5824L17.1411 18.57H17.1549ZM10.0001 15.7092H9.98684V14.2909H10.0001L9.98684 14.2788V14.2909H8.59302V15.7092H9.98684V15.7213L10.0001 15.7092ZM12.8428 24.2955V24.282C12.8428 24.282 12.8552 24.2952 12.8552 24.2955L12.8428 24.2955ZM12.8428 24.2955V25.6962H11.4495V24.2958C11.9107 24.2958 12.377 24.2958 12.8428 24.2955ZM27.1997 29.9986H28.5732V28.6189H27.1997V29.9986ZM2.8606 7.11225H7.09963V2.87549H2.8606V7.11225ZM22.8933 7.10031V2.86523H27.131V7.10031H22.8933ZM7.11006 27.128V22.8916H2.8645V27.128H7.11006Z" fill="white"/>
</svg>
