<svg width="96" height="86" viewBox="0 0 96 86" fill="none" xmlns="http://www.w3.org/2000/svg">
<rect x="11" y="4" width="32" height="14" fill="#C4C4C4"/>
<path fill-rule="evenodd" clip-rule="evenodd" d="M46 41.0998V54.6393L57.8832 70.9067C57.918 70.956 57.9554 71.0034 57.9951 71.0486C58.2903 71.3854 58.7146 71.6064 59.1909 71.6348C59.2334 71.6374 59.276 71.6385 59.3186 71.6379H65.8703C66.3529 75.8714 68.5908 79.573 71.8397 82H89.933C93.6162 79.2487 96 74.8591 96 69.9138C96 61.5819 89.2334 54.8276 80.8864 54.8276C77.8744 54.8276 75.0683 55.707 72.7116 57.2227L69.1943 53.273L72.0315 47.5H77.864C78.818 47.5 79.5913 46.7281 79.5913 45.7759C79.5913 44.8236 78.818 44.0517 77.864 44.0517H69.8784L58.8836 66.4235L46.2577 49.1394L50.9264 38.4483H58.8632C59.8172 38.4483 60.5905 37.6764 60.5905 36.7241C60.5905 35.7719 59.8172 35 58.8632 35H48.6637L46 41.0998ZM46 59.449V65.7387C46.4992 67.0347 46.7727 68.4423 46.7727 69.9138C46.7727 71.3852 46.4992 72.7929 46 74.0889V80C46 80.1315 45.9958 80.2621 45.9874 80.3916C48.6125 77.6778 50.2273 73.984 50.2273 69.9138C50.2273 65.8501 48.6176 62.1616 46 59.449ZM65.8703 68.1897H61.8634L67.5506 56.6175L70.0376 59.4103C67.7747 61.7386 66.2575 64.7929 65.8703 68.1897ZM92.5455 69.9138C92.5455 76.3412 87.3255 81.5517 80.8864 81.5517C75.0341 81.5517 70.1889 77.2478 69.3543 71.6379H81.75C82.7039 71.6379 83.4773 70.866 83.4773 69.9138C83.4773 69.3276 83.1842 68.8098 82.7364 68.4983C82.6977 68.4428 82.6553 68.3891 82.6092 68.3373L75.043 59.8408C76.761 58.8456 78.757 58.2759 80.8864 58.2759C87.3255 58.2759 92.5455 63.4863 92.5455 69.9138ZM77.8557 68.1897H69.3543C69.7075 65.8158 70.7789 63.6757 72.3408 61.9967L77.8557 68.1897Z" fill="black"/>
<rect x="11" y="18" width="32" height="64" fill="white"/>
<path fill-rule="evenodd" clip-rule="evenodd" d="M26.5 43C30.9183 43 34.5 39.4183 34.5 35C34.5 30.5817 30.9183 27 26.5 27C22.0817 27 18.5 30.5817 18.5 35C18.5 39.4183 22.0817 43 26.5 43ZM26.5 40.3333C23.5545 40.3333 21.1667 37.9455 21.1667 35H23.3C23.3 36.7673 24.7327 38.2 26.5 38.2C28.2673 38.2 29.7 36.7673 29.7 35H31.8333C31.8333 37.9455 29.4455 40.3333 26.5 40.3333Z" fill="#F0EC99" fill-opacity="0.8"/>
<path fill-rule="evenodd" clip-rule="evenodd" d="M26.5 57C30.9183 57 34.5 53.4183 34.5 49C34.5 44.5817 30.9183 41 26.5 41C22.0817 41 18.5 44.5817 18.5 49C18.5 53.4183 22.0817 57 26.5 57ZM26.5 54.3333C23.5545 54.3333 21.1667 51.9455 21.1667 49H23.3C23.3 50.7673 24.7327 52.2 26.5 52.2C28.2673 52.2 29.7 50.7673 29.7 49H31.8333C31.8333 51.9455 29.4455 54.3333 26.5 54.3333Z" fill="#4A705F" fill-opacity="0.8"/>
<path fill-rule="evenodd" clip-rule="evenodd" d="M14 4H40C41.1046 4 42 4.89543 42 6V80C42 81.1046 41.1046 82 40 82H26V86H40H94C95.1046 86 96 85.1046 96 84C96 82.8954 95.1046 82 94 82H45.6586C45.8797 81.3744 46 80.7013 46 80V6C46 2.68629 43.3137 0 40 0H14C10.6863 0 8 2.68629 8 6V80C8 80.7013 8.12031 81.3744 8.34141 82H2C0.89543 82 0 82.8954 0 84C0 85.1046 0.89543 86 2 86H14H16V82H14C12.8954 82 12 81.1046 12 80V20H13.5H36.5C37.6046 20 38.5 19.1046 38.5 18C38.5 16.8954 37.6046 16 36.5 16H13.5H12V6C12 4.89543 12.8954 4 14 4Z" fill="black"/>
</svg>
