<svg width="24" height="25" viewBox="0 0 24 25" fill="none" xmlns="http://www.w3.org/2000/svg">
<path d="M15 19.4581H11.25V23.2081M22.667 20.1911C22.2698 21.3518 21.5006 22.349 20.4788 23.028C19.457 23.7069 18.2397 24.0297 17.0157 23.9462C15.7917 23.8626 14.6295 23.3775 13.7094 22.566C12.7894 21.7545 12.1628 20.662 11.927 19.4581M19.5 16.4581H23.25V12.7081M11.833 15.7251C12.2302 14.5643 12.9994 13.5671 14.0212 12.8881C15.043 12.2092 16.2603 11.8864 17.4843 11.97C18.7083 12.0535 19.8705 12.5387 20.7906 13.3501C21.7106 14.1616 22.3372 15.2541 22.573 16.4581" stroke="black" stroke-width="1.5" stroke-linecap="round" stroke-linejoin="round"/>
<path d="M7.87488 17.958H4.31388C3.98905 17.9523 3.67568 17.837 3.42463 17.6307C3.17359 17.4245 2.99959 17.1395 2.93088 16.822L0.792876 7.82201C0.735636 7.60646 0.727713 7.38079 0.769697 7.16176C0.81168 6.94273 0.90249 6.73597 1.03538 6.55687C1.16826 6.37777 1.33981 6.23092 1.53726 6.12724C1.73471 6.02356 1.95299 5.96572 2.17588 5.95801H20.3239C20.5468 5.96572 20.765 6.02356 20.9625 6.12724C21.1599 6.23092 21.3315 6.37777 21.4644 6.55687C21.5973 6.73597 21.6881 6.94273 21.7301 7.16176C21.772 7.38079 21.7641 7.60646 21.7069 7.82201L21.4069 9.07801M3.74988 5.95801L8.24988 1.45801M18.7499 5.95801L14.2499 1.46001" stroke="black" stroke-width="1.5" stroke-linecap="round" stroke-linejoin="round"/>
</svg>
