<svg width="24" height="21" viewBox="0 0 24 21" fill="none" xmlns="http://www.w3.org/2000/svg">
<path d="M5.25 8.65401L0.75 10.904M0.75 19.708C4.58685 18.4289 7.991 16.1052 10.58 12.998L10.814 12.718C11.514 11.877 10.514 10.686 9.431 11.186L3.685 13.838M16.53 12.958L13.23 17.049C13.0679 17.2531 12.8344 17.3882 12.5767 17.427C12.3189 17.4658 12.056 17.4054 11.841 17.258L11.721 17.176C11.5286 17.0421 11.3845 16.8497 11.3102 16.6274C11.2358 16.4051 11.235 16.1648 11.308 15.942L11.579 15.108M18.271 12.958L17.411 17.367C17.3808 17.5234 17.3154 17.6708 17.2198 17.7982C17.1242 17.9255 17.0008 18.0294 16.859 18.102C16.7187 18.173 16.5637 18.21 16.4065 18.21C16.2493 18.21 16.0943 18.173 15.954 18.102L15.673 17.957C15.5021 17.868 15.3591 17.7337 15.2596 17.5688C15.1601 17.4038 15.108 17.2146 15.109 17.022V14.722M18.75 1.70801H21.75C22.1478 1.70801 22.5294 1.86604 22.8107 2.14735C23.092 2.42865 23.25 2.81018 23.25 3.20801V11.458C23.25 11.8558 23.092 12.2374 22.8107 12.5187C22.5294 12.8 22.1478 12.958 21.75 12.958H13.5M5.25 9.95801V3.20801C5.25 2.81018 5.40804 2.42865 5.68934 2.14735C5.97064 1.86604 6.35218 1.70801 6.75 1.70801H10.5" stroke="black" stroke-width="1.5" stroke-linecap="round" stroke-linejoin="round"/>
<path d="M12.579 8.05201C13.019 8.62901 13.712 8.95601 14.437 8.92701M14.437 8.92701C15.576 8.92701 16.5 8.23401 16.5 7.38001C16.5 6.52601 15.576 5.83401 14.437 5.83401C13.298 5.83401 12.375 5.14101 12.375 4.28601C12.375 3.43101 13.299 2.73901 14.437 2.73901M14.437 8.92701V9.95801M14.437 2.73901C14.7943 2.72453 15.1497 2.79652 15.4732 2.94885C15.7967 3.10119 16.0786 3.32937 16.295 3.61401M14.437 2.73901V1.70801" stroke="black" stroke-width="1.5" stroke-linecap="round" stroke-linejoin="round"/>
</svg>
