<svg width="24" height="25" viewBox="0 0 24 25" fill="none" xmlns="http://www.w3.org/2000/svg">
<path d="M21.75 13.458V22.458C21.75 22.8558 21.592 23.2374 21.3107 23.5187C21.0294 23.8 20.6478 23.958 20.25 23.958H3.75C3.35218 23.958 2.97064 23.8 2.68934 23.5187C2.40804 23.2374 2.25 22.8558 2.25 22.458V13.458M21.148 1.45801H2.852C2.6813 1.45798 2.51568 1.51611 2.38244 1.62281C2.24919 1.72951 2.15628 1.87843 2.119 2.04501L0.75 8.20801C0.75 8.50348 0.808198 8.79606 0.921271 9.06905C1.03434 9.34203 1.20008 9.59007 1.40901 9.799C1.61794 10.0079 1.86598 10.1737 2.13896 10.2867C2.41194 10.3998 2.70453 10.458 3 10.458C3.29547 10.458 3.58806 10.3998 3.86104 10.2867C4.13402 10.1737 4.38206 10.0079 4.59099 9.799C4.79992 9.59007 4.96566 9.34203 5.07873 9.06905C5.1918 8.79606 5.25 8.50348 5.25 8.20801C5.25 8.80474 5.48705 9.37704 5.90901 9.799C6.33097 10.221 6.90326 10.458 7.5 10.458C8.09674 10.458 8.66903 10.221 9.09099 9.799C9.51295 9.37704 9.75 8.80474 9.75 8.20801C9.75 8.80474 9.98705 9.37704 10.409 9.799C10.831 10.221 11.4033 10.458 12 10.458C12.5967 10.458 13.169 10.221 13.591 9.799C14.0129 9.37704 14.25 8.80474 14.25 8.20801C14.25 8.50348 14.3082 8.79606 14.4213 9.06905C14.5343 9.34203 14.7001 9.59007 14.909 9.799C15.1179 10.0079 15.366 10.1737 15.639 10.2867C15.9119 10.3998 16.2045 10.458 16.5 10.458C16.7955 10.458 17.0881 10.3998 17.361 10.2867C17.634 10.1737 17.8821 10.0079 18.091 9.799C18.2999 9.59007 18.4657 9.34203 18.5787 9.06905C18.6918 8.79606 18.75 8.50348 18.75 8.20801C18.75 8.80474 18.9871 9.37704 19.409 9.799C19.831 10.221 20.4033 10.458 21 10.458C21.5967 10.458 22.169 10.221 22.591 9.799C23.0129 9.37704 23.25 8.80474 23.25 8.20801L21.88 2.04501C21.8429 1.87851 21.7502 1.72962 21.6171 1.6229C21.4841 1.51619 21.3186 1.45802 21.148 1.45801Z" stroke="black" stroke-width="1.5" stroke-linecap="round" stroke-linejoin="round"/>
<path d="M18.75 17.208C18.75 16.4124 18.4339 15.6493 17.8713 15.0867C17.3087 14.5241 16.5456 14.208 15.75 14.208C14.9544 14.208 14.1913 14.5241 13.6287 15.0867C13.0661 15.6493 12.75 16.4124 12.75 17.208V23.958H18.75V17.208ZM6 16.458H9C9.19891 16.458 9.38968 16.537 9.53033 16.6777C9.67098 16.8183 9.75 17.0091 9.75 17.208V20.208C9.75 20.4069 9.67098 20.5977 9.53033 20.7383C9.38968 20.879 9.19891 20.958 9 20.958H6C5.80109 20.958 5.61032 20.879 5.46967 20.7383C5.32902 20.5977 5.25 20.4069 5.25 20.208V17.208C5.25 17.0091 5.32902 16.8183 5.46967 16.6777C5.61032 16.537 5.80109 16.458 6 16.458Z" stroke="black" stroke-width="1.5" stroke-linecap="round" stroke-linejoin="round"/>
<path d="M16.125 18.708C16.2245 18.708 16.3198 18.7475 16.3902 18.8178C16.4605 18.8882 16.5 18.9836 16.5 19.083C16.5 19.1825 16.4605 19.2778 16.3902 19.3482C16.3198 19.4185 16.2245 19.458 16.125 19.458C16.0255 19.458 15.9302 19.4185 15.8598 19.3482C15.7895 19.2778 15.75 19.1825 15.75 19.083C15.75 18.9836 15.7895 18.8882 15.8598 18.8178C15.9302 18.7475 16.0255 18.708 16.125 18.708Z" stroke="black" stroke-width="1.5" stroke-linecap="round" stroke-linejoin="round"/>
</svg>
